<?xml version="1.0" encoding="UTF-8" standalone="no"?>
<!DOCTYPE svg PUBLIC "-//W3C//DTD SVG 1.1//EN" "http://www.w3.org/Graphics/SVG/1.1/DTD/svg11.dtd">
<svg width="100%" height="100%" viewBox="0 0 1000 1072" version="1.1" xmlns="http://www.w3.org/2000/svg" xmlns:xlink="http://www.w3.org/1999/xlink" xml:space="preserve" xmlns:serif="http://www.serif.com/" style="fill-rule:evenodd;clip-rule:evenodd;stroke-linecap:round;stroke-linejoin:round;stroke-miterlimit:1.5;">
    <g id="lager1" transform="matrix(1,0,0,1,-0.524402,3.69893)">
        <path d="M398.448,870.146L398.448,903.635C398.448,906.232 396.34,908.34 393.743,908.34L384.332,908.34C381.735,908.34 379.627,906.232 379.627,903.635L379.627,870.146C379.627,867.55 381.735,865.441 384.332,865.441L393.743,865.441C396.34,865.441 398.448,867.55 398.448,870.146Z" style="stroke:black;stroke-width:6.5px;"/>
    </g>
    <path id="lager2" d="M464.636,549.991C465.948,550.263 469.84,551.071 480.47,555.471C492.209,560.33 494.528,567.826 495.693,570.477C496.182,568.329 497.803,564.158 489.122,556.761C480.192,549.152 473.924,548.562 471.398,548.035C473.786,547.733 476.312,546.416 485.93,550.403C490.922,552.472 491.777,554.517 494.512,557.737C493.705,555.736 492.96,551.665 486.269,547.896C480.167,544.459 480.009,544.698 476.366,544.131C485.553,544.018 490.202,546.318 495.055,550.207C494.364,549.316 488.306,541.504 484.717,540.629C489.804,537.6 495.103,533.713 495.649,539.954C496.312,547.533 488.582,544.872 488.098,544.329C487.336,543.473 492.548,539.719 493,539.394C486.985,544.519 486.608,544.171 478.771,545.017C479.74,541.586 480.806,540.56 483.691,538.32" style="fill:none;stroke:black;stroke-width:6.5px;"/>
    <g id="lager3" transform="matrix(1.11703,0,0,0.951573,-58.2401,29.1219)">
        <path d="M815.347,516.014L815.347,600.217C815.347,600.845 814.913,601.355 814.377,601.355L498.604,601.355C498.069,601.355 497.635,600.845 497.635,600.217L497.635,516.014C497.635,515.386 498.069,514.876 498.604,514.876L814.377,514.876C814.913,514.876 815.347,515.386 815.347,516.014Z" style="stroke:black;stroke-width:6.26px;"/>
    </g>
    <g transform="matrix(0.892954,0,0,1.21827,49.6319,-121.106)">
        <g id="lager4">
            <path d="M457.482,553.938C459.817,553.677 465.456,552.766 478.924,558.429C485.081,561.018 491.345,564.382 495.298,572.448" style="fill:none;stroke:black;stroke-width:6.09px;"/>
        </g>
    </g>
    <g id="lager5" transform="matrix(1,0,0,1.06082,0,-33.5997)">
        <path d="M508.221,529.116C504.15,529.76 487.212,534.846 474.28,541.574C465.629,546.074 464.14,546.349 458.497,552.481" style="fill:none;stroke:black;stroke-width:6.31px;"/>
    </g>
    <g id="lager6" transform="matrix(0.193183,2.66869,-3.54019,0.25627,2229.7,-1089.4)">
        <path d="M539.063,471.807L546.286,508.788L531.841,508.788L539.063,471.807Z" style="stroke:black;stroke-width:2.07px;"/>
    </g>
    <rect id="lager7" x="470.766" y="434.789" width="66.188" height="77.298"/>
    <g id="lager8" transform="matrix(1.1202,0,0,1.05795,-107.25,-12.2968)">
        <path d="M881.056,200.838C884.233,201.825 885.099,202.894 887.233,205.164C890.942,209.111 892.001,211.573 892.275,212.21" style="fill:none;stroke:black;stroke-width:0.92px;"/>
    </g>
    <g id="lager9" transform="matrix(0.995091,-0.0989614,0.0989614,0.995091,-17.6565,84.5418)">
        <path d="M826.227,208.886C834.232,198.645 840.916,200.102 843.97,200.581" style="fill:none;stroke:black;stroke-width:1px;"/>
    </g>
    <g id="lager10" transform="matrix(0.592333,-0.0633146,0.105909,0.990822,341.577,62.3386)">
        <rect x="890.686" y="201.233" width="33.366" height="137.985"/>
    </g>
    <g transform="matrix(0.99126,0,0,1,4.03474,0)">
        <g id="lager11">
            <g>
                <path d="M471.162,429.721C472.293,457.243 473.425,484.766 474.557,512.288C446.628,519.261 418.7,526.233 390.771,533.206C377.038,519.602 376.189,500.693 369.058,471.159C363.312,447.356 358.574,430.314 388.01,424.981C423.705,425.712 449.8,428.503 471.162,429.721Z"/>
            </g>
        </g>
    </g>
    <g id="lager12" transform="matrix(-0.855561,-0.121008,-0.169659,1.19954,1325.62,-13.3591)">
        <path d="M668.924,473.02C669.15,477.51 669.192,478.844 669.04,484.553" style="fill:none;stroke:black;stroke-width:6.18px;"/>
    </g>
    <rect id="lager13" x="776.163" y="430.331" width="45.497" height="43.435"/>
    <g id="lager14" transform="matrix(1.00733,0,0,1.09772,-5.4296,-47.5562)">
        <rect x="537.107" y="338.164" width="239.533" height="136.791"/>
    </g>
    <path id="lager15" d="M633.557,485.162C630.709,485.613 630.762,485.827 628.405,487.483C628.814,487.565 630.899,487.986 633.336,485.784C637.179,482.312 637.177,482.345 641.183,479.05" style="fill:none;stroke:black;stroke-width:6.5px;"/>
    <path id="lager16" d="M651.098,475.053C659.544,470.035 663.929,470.256 667.486,470.537" style="fill:none;stroke:black;stroke-width:6.5px;"/>
    <g id="lager17" transform="matrix(1.00065,0,0,1.00065,-1.17385,0.690121)">
        <g>
            <path d="M840.43,173.613C819.239,227.393 798.047,281.174 776.855,334.955C696.789,335.874 616.722,336.793 536.656,337.713C513.722,283.013 490.789,228.313 467.856,173.613L840.43,173.613Z"/>
        </g>
    </g>
    <path id="lager18" d="M829.246,200.892C828.797,204.111 828.306,203.956 827.183,206.993C827.589,206.5 830.676,202.842 830.966,202.553C831.887,201.634 832.559,201.576 834.271,200.696C832.976,201.811 832.63,202.137 830.006,203.696C829.01,204.287 828.893,201.806 830.262,199.698C830.833,200.626 830.792,200.759 830.226,202.33C830.48,202.105 830.477,202.11 831.948,200.844C831.128,201.55 831.059,201.444 830.237,202.154C829.915,202.432 829.96,202.45 829.738,202.83" style="fill:none;stroke:black;stroke-width:1px;"/>
    <g id="lager19" transform="matrix(1,0,0,1,0.828111,-0.130987)">
        <g transform="matrix(1.72938,-0.471587,0.263085,0.964773,-713.903,430.631)">
            <g id="lager191" serif:id="lager19">
                <path d="M901.341,166.87C905.921,166.87 909.769,176.602 909.771,188.855C909.771,201.024 905.97,210.925 901.342,210.929C896.759,210.933 892.932,201.199 892.932,188.903C892.932,176.649 896.748,166.871 901.341,166.87Z"/>
            </g>
        </g>
    </g>
    <path id="lager20" d="M883.333,201.136C884.245,201.528 884.24,201.526 885.14,201.948C885.111,201.753 885.162,201.735 884.691,200.801C885.367,201.19 885.38,201.201 886.335,202.615C885.71,202.676 885.658,202.666 885.273,202.17C886.316,203.363 886.332,203.345 887.623,204.27C888.213,204.693 888.6,205.448 889.088,206.062C889.685,206.813 891.258,208.193 891.457,208.367C889.488,205.531 889.564,205.414 888.344,204.725C888.016,204.54 887.348,204.195 887.348,204.195C887.295,204.193 887.08,205.525 888.688,206.722C890.024,207.716 889.86,207.901 891.171,208.93" style="fill:none;stroke:black;stroke-width:1px;"/>
    <path id="lager21" d="M908.578,201.213C908.731,203.166 908.678,203.176 908.573,203.332C908.413,203.572 908.451,203.573 908.334,203.925C909.439,202.573 909.071,202.318 908.965,201.263C908.815,199.76 909.076,198.943 909.112,198.759C910.24,201.323 909.427,201.436 909.4,204.545" style="fill:none;stroke:black;stroke-width:1px;"/>
    <g id="lager22" transform="matrix(-0.0308802,0,0,1,938.543,0.395098)">
        <path d="M910.648,209.982C910.481,198.7 911.021,198.649 909.93,194.016" style="fill:none;stroke:black;stroke-width:1.41px;"/>
    </g>
    <path id="lager23" d="M909.815,198.352C909.879,202.219 909.956,202.228 909.458,204.839" style="fill:none;stroke:black;stroke-width:1px;"/>
    <g id="lager24" transform="matrix(1.31402,0,0,1.07477,-266.122,-14.2329)">
        <rect x="830.559" y="169.797" width="16.917" height="30.568"/>
    </g>
    <g id="lager25" transform="matrix(1,0,0,1,0.464181,0.0471885)">
        <g>
            <path d="M846.861,111.787C852.175,118.041 849.006,129.037 851.096,139.444C851.368,140.798 851.939,142.094 852.08,143.468C852.36,146.218 854.151,149.656 852.353,151.755C846.924,154.595 839.887,153.916 836.162,153.916C836.162,134.883 835.726,117.95 835.726,106.505C836.96,106.983 839.863,107.678 840.649,108.046C842.641,108.98 846.378,111.466 846.861,111.787Z"/>
        </g>
    </g>
    <g transform="matrix(1,0,0,2.13078,-0.240825,-197.455)">
        <g id="lager26">
            <path d="M840.83,155.046L840.83,174.557C824.429,174.558 814.541,189.848 796.065,190.863C769.687,192.313 714.397,192.763 707.294,192.821C639.386,193.375 569.634,192.257 505.94,192.217C496.15,192.211 494.094,191.486 484.183,182.824C480.78,179.85 475.072,174.557 467.225,174.557L467.225,155.046L840.83,155.046Z"/>
        </g>
    </g>
    <g id="lager27">
        <g transform="matrix(0.962064,0,0,1.00882,27.985,-1.48535)">
            <path d="M840.806,107.461C844.777,131.015 846.202,145.628 846.202,168.581C810.033,168.551 773.864,168.521 737.695,168.49L737.695,99.738C771.097,100.155 804.44,98.7 840.806,107.461Z"/>
        </g>
    </g>
    <g id="lager28">
        <path d="M737.852,74.143C740.21,102.623 742.568,131.102 744.926,159.582C649.891,158.994 554.857,158.405 459.822,157.817C460.868,130.311 461.915,102.804 462.962,75.298C554.592,74.913 646.222,74.528 737.852,74.143Z"/>
    </g>
    <g id="lager29" transform="matrix(1.51406,0,0,1.64178,-448.573,-379.57)">
        <path d="M872.604,591.432C868.805,592.924 867.376,595.508 865.163,599.644" style="fill:none;stroke:black;stroke-width:0.63px;"/>
    </g>
    <rect id="lager30" x="850.601" y="515.788" width="11.568" height="294.636"/>
    <path id="lager31" d="M863.453,591.042L863.765,590.35C861.534,591.353 861.376,591.433 859.95,594.19C861.873,593.484 862.245,593.485 863.259,590.705C862.182,591.208 862.194,591.208 861.407,592.127C862.002,591.964 862.005,592.032 862.609,591.647C862.449,591.838 860.49,594.176 860.945,594.277C862.191,594.553 863.73,592.751 863.909,592.542C862.962,593.174 862.649,592.867 861.521,594.888C862.019,594.47 864.423,593.53 865.499,588.827C865.459,588.854 863.619,589.39 862.321,592.383C859.609,598.637 866.596,591.819 865.365,591.655C863.152,591.359 861.624,594.395 861.445,594.752C862.541,593.904 862.559,593.942 863.411,592.83C862.557,593.962 862.539,593.922 861.833,595.138C862.232,594.756 862.632,594.373 863.031,593.991C862.412,596.446 862.423,596.433 861.973,598.668C865.081,595.099 864.767,594.9 867.118,590.81C863.242,593.692 864.172,594.441 861.433,599.399C865.223,597.781 864.012,594.139 867.653,590.902C867.697,591.282 867.93,593.251 865.893,595.35C862.891,598.441 862.946,598.58 862.016,601.919C862.451,597.754 863.16,597.968 866.761,591.021C868.239,588.17 868.244,591.203 868.218,591.32C867.642,593.979 866.156,594.649 865.047,596.212C863.541,598.337 863.412,599.664 862.267,601.339C860.72,597.168 865.126,591.47 867.335,590.45C867.895,590.191 869.804,590.945 869.783,592.103C869.765,593.088 868.334,593.953 866.622,595.01C865.449,593.483 865.886,592.856 866.465,590.987C866.869,592.523 866.212,593.6 865.398,596.127C867.818,593.753 867.365,593.394 869.668,590.916C868.971,593.107 868.643,592.917 866.578,595.484" style="fill:none;stroke:black;stroke-width:1px;"/>
    <path id="lager32" d="M870.999,591.649C870.18,591.922 869.362,592.194 868.543,592.466" style="fill:none;stroke:black;stroke-width:1px;"/>
    <g id="lager33">
        <path d="M720.994,58.819C722.155,70.907 723.317,82.994 724.479,95.081C622.777,94.854 521.075,94.628 419.373,94.402L419.373,58.164C519.913,58.383 620.453,58.601 720.994,58.819Z"/>
    </g>
    <rect id="lager34" x="924.488" y="537.233" width="21.71" height="274.081"/>
    <rect id="lager35" x="851.801" y="810.331" width="94.288" height="13.578"/>
    <g id="lager36" transform="matrix(1.12909,0,0,1.21811,-67.3272,-195.894)">
        <ellipse cx="499.512" cy="878.574" rx="22.027" ry="19.581"/>
    </g>
    <rect id="lager37" x="867.33" y="868.312" width="7.124" height="14.582"/>
    <g id="lager38" transform="matrix(1.24083,-0.86977,0.788015,1.12419,-895.067,654.079)">
        <ellipse cx="875.004" cy="871.219" rx="4.384" ry="8.379"/>
    </g>
    <rect id="lager39" x="388.463" y="865.883" width="480.328" height="39.66"/>
    <g id="lager40">
        <path d="M918.069,871.083C932.438,885.32 946.807,899.558 961.176,913.795C914.389,911.606 867.602,909.417 820.815,907.228C841.982,895.178 863.149,883.128 884.315,871.078C895.567,871.079 906.818,871.081 918.069,871.083Z"/>
    </g>
    <g id="lager41" transform="matrix(1.05669,0,0,1,-55.0626,-0.254052)">
        <g transform="matrix(1,0,0,1.00548,0,-5.09803)">
            <g id="lager411" serif:id="lager41">
                <path d="M967.852,920.237C968.302,923.685 968.752,927.133 969.202,930.582L926.877,930.582L926.877,902.716C929.169,903.397 931.663,902.269 933.967,901.629C936.598,900.899 938.915,899.177 941.59,898.629C946.293,897.667 946.046,899.241 949.368,902.715C950.336,903.727 952.68,906.178 962.221,914.596C965.244,917.263 965.722,916.822 967.852,920.237Z"/>
            </g>
        </g>
    </g>
    <g id="lager42">
        <path d="M969.157,992.628C968.59,1000.43 968.024,1008.23 967.457,1016.03L924.603,1016.03L924.603,992.253C939.454,992.378 954.306,992.503 969.157,992.628Z"/>
    </g>
    <path id="lager43" d="M848.03,1027.17C848.044,1036.23 847.644,1036.48 848.057,1043.8C848.146,1045.37 851.608,1045.18 852.66,1045.28" style="fill:none;stroke:black;stroke-width:1px;"/>
    <path id="lager44" d="M848.253,1027.23C850.813,1027.6 851.712,1026.78 852.299,1029.31C852.796,1031.45 853.587,1045.08 852.318,1045.42C850.406,1045.95 850.396,1045.37 849.421,1043.65" style="fill:none;stroke:black;stroke-width:1px;"/>
    <path id="lager45" d="M848.731,1027.73C848.748,1030.92 849.252,1030.92 848.613,1038.58C848.425,1040.83 847.917,1044.84 850.265,1044.7C850.846,1044.66 849.88,1041.63 849.897,1041.01C850.031,1036.16 850.019,1036.17 850.472,1031.32C850.571,1030.26 849.898,1029.06 849.376,1027.68C849.337,1029.41 849.614,1029.39 849.449,1031.13C849.127,1034.54 849.001,1034.54 849.428,1037C850.059,1040.62 848.625,1043 850.313,1042.47C851.055,1042.23 851.004,1041.05 850.753,1040.35C849.99,1038.23 850.656,1038.18 851.086,1033.5" style="fill:none;stroke:black;stroke-width:1px;"/>
    <g id="lager46">
        <path d="M924.936,1027.18C922,1034.09 919.065,1041 916.129,1047.91L906.026,1047.91L906.026,1026.86C912.329,1026.97 918.633,1027.07 924.936,1027.18Z"/>
    </g>
    <path id="lager47" d="M151.869,1027.63C151.409,1031.13 151.141,1032.73 151.067,1033.17" style="fill:none;stroke:black;stroke-width:1px;"/>
    <path id="lager48" d="M149.997,1026.99C148.848,1028.2 147.719,1029.06 147.831,1031.87C148.005,1031.63 149.838,1029.13 149.328,1028.5C148.678,1027.7 148.071,1028.92 148.021,1029.02C148.061,1028.61 148.102,1028.19 148.142,1027.78C147.878,1027.95 147.614,1028.12 147.35,1028.29C148.97,1028.33 148.943,1028.69 150.564,1028.47C150.825,1028.43 151.654,1028.21 151.718,1029.46C151.924,1033.52 151.274,1036.34 151.139,1036.93C150.796,1036.39 150.22,1036.25 149.97,1033.17C149.796,1031.01 149.808,1031.01 148.881,1028.91C148.438,1029.93 148.32,1029.89 148.353,1031.03C148.387,1032.2 148.913,1031.89 150.035,1031.55C149.785,1029.92 149.771,1029.94 149.745,1028.3C149.92,1028.48 151.358,1029.41 150.696,1030.84C150.209,1031.89 148.81,1032.41 148.611,1032.48C148.911,1030.96 149.498,1031.28 150.15,1029.85" style="fill:none;stroke:black;stroke-width:1px;"/>
    <g id="lager49" transform="matrix(1,0,0,1,0.430576,0.430576)">
        <rect x="850.243" y="1024.88" width="56.743" height="28.737"/>
    </g>
    <g id="lager50" transform="matrix(6.02624,0,0,4.19866,-373.44,-3254.28)">
        <path d="M74.298,1017.39C74.321,1018.04 74.368,1019.37 76.084,1025.3" style="fill:none;stroke:black;stroke-width:0.19px;"/>
    </g>
    <g id="lager51" transform="matrix(0.887637,0,0,1,12.6329,0)">
        <rect x="81.519" y="1013.23" width="30.911" height="37.857"/>
    </g>
    <g id="lager52" transform="matrix(1.14659,0,0,1,-13.6334,0)">
        <rect x="93.003" y="1049.65" width="16.534" height="5.345"/>
    </g>
    <path id="lager53" d="M74.924,1018.21C79.342,1017.32 79.414,1018.38 82.975,1017.87C84.825,1017.6 84.876,1017.63 86.463,1018.59C86.071,1018.7 83.318,1019.48 81.414,1019.24C77.346,1018.73 75.598,1019.05 74.87,1019.12C76.271,1018.67 76.283,1018.62 78.396,1018.91C81.008,1019.27 80.995,1018.33 86.175,1018.59C78.267,1019.22 77.818,1019.3 77.098,1019.41C77.156,1019.37 77.818,1018.91 77.818,1018.91C79.736,1017.94 84.533,1019.6 84.95,1020.21C85.088,1020.41 83.414,1021.5 81.81,1021.55C79.441,1021.63 79.004,1021.09 75.568,1020.06C76.185,1019.55 76.069,1019.39 77.953,1018.49C76.719,1018.52 75.584,1018.43 75.512,1019.14C75.431,1019.92 75.494,1019.91 75.668,1023.02C76.112,1030.93 85.685,1029.55 85.779,1029.02C86.018,1027.67 83.746,1025.17 83.275,1023.88C83.107,1023.42 83.374,1023.36 81.956,1017.9C83.458,1021.32 83.249,1021.41 85.217,1024.57C85.834,1025.57 84.786,1031.82 82.257,1026.21C81.857,1025.32 81.098,1024.22 80.973,1019.01C80.967,1018.72 82.192,1018.39 83.109,1019.65C84.984,1022.23 82.319,1022.75 83.715,1028.08C83.813,1027.9 84.777,1026.06 82.834,1025.6C80.121,1024.94 82.794,1029.36 83.863,1027.71C84.729,1026.37 82.303,1024.41 81.687,1025.35C81.255,1026 84.065,1027.39 84.123,1025.25C84.154,1024.11 82.516,1022.69 81.562,1024.25C81.503,1024.35 81.71,1025.21 82.131,1024.79C83.26,1023.64 82.066,1020.48 81.605,1019.88C81.558,1020.62 81.302,1020.85 82.677,1021.91C82.558,1021.7 81.088,1019.12 79.857,1020.89C79.602,1021.25 79.127,1023.75 80.642,1022.52C80.755,1022.59 82.09,1023.4 82.225,1023C82.236,1022.97 82.593,1021.1 80.758,1021.12C80.586,1020.97 80.233,1020.3 79.548,1021.2C78.907,1022.04 80.83,1022.89 80.998,1022.97C80.9,1022.47 80.903,1022.48 80.808,1021.97C83.281,1022.3 83.452,1022.31 83.399,1022.11C82.887,1020.18 79.802,1020.26 81.027,1021.95C80.909,1020.9 81.005,1020.74 80.047,1020.28C79.068,1019.82 78.211,1020.08 78.059,1020.12C79.06,1020.47 79.746,1021.18 81.973,1020.7C81.032,1020.07 80.948,1019.89 79.935,1020.42C78.022,1021.42 80.891,1021.69 80.907,1020.96C80.913,1020.68 80.417,1020.15 79.953,1019.98C79.259,1019.73 79.245,1019.86 78.565,1020.17C80.83,1021.09 80.03,1018.85 79.046,1018.72C78.306,1018.62 77.792,1019.31 77.721,1019.41C77.645,1019.51 77.528,1020.06 79.265,1019.85C78.123,1019.88 76.98,1019.91 75.837,1019.94C76.794,1020.91 76.796,1020.88 77.84,1021.78L76.973,1021.35C77.664,1022.59 77.674,1022.56 78.514,1023.73C75.753,1020.85 75.831,1020.78 75.743,1020.67C76.416,1022.48 76.823,1022.85 78.243,1024.33C77.257,1023.51 77.285,1023.51 75.807,1022C76.294,1026.13 78.452,1027.35 78.508,1027.4C78.224,1025.79 78.351,1025.69 76.595,1023.31C78.939,1024.1 79.313,1024.65 81.362,1027.17C79.845,1025.44 79.859,1025.45 78.322,1023.75C79.603,1025.06 79.467,1025.2 82.186,1027.25C81.397,1025.19 81.696,1025 78.491,1020.86C79.241,1022.41 79.092,1022.53 81.383,1024.72C79.669,1023.37 79.684,1023.37 77.856,1022.18C79.458,1024.28 79.457,1024.28 81.467,1026C80.925,1025.02 81.082,1024.89 79.437,1022.91C80.255,1024.69 80.279,1024.66 81.391,1026.26C78.926,1027.24 77.302,1026.34 77.048,1025.07C76.955,1024.6 76.896,1024.63 76.477,1024.42C75.886,1024.13 75.88,1024.47 75.853,1025.14C75.785,1026.89 82.188,1031.6 83.673,1030.58C84.789,1029.81 82.533,1026.42 79.265,1024.9C79.566,1026.87 79.795,1026.98 84.882,1032.21C83.813,1030.71 83.586,1029.84 77.871,1024.85C80.479,1027.13 80.518,1027.06 83.196,1029.27C82.436,1028.07 82.187,1027.22 78.597,1023.8C82.139,1027.23 82.321,1027.02 85.943,1030.35C84.087,1029.75 84.05,1029.81 81.668,1028.19C85.469,1030.86 86.513,1031.67 89.35,1034.51C85.171,1031.46 85.26,1031.37 81.074,1028.3C82.773,1029.45 82.784,1029.41 85.442,1031.39C82.038,1028.99 82.074,1028.97 78.554,1026.74C80.259,1028.46 80.297,1028.4 81.847,1029.69C80.394,1028.5 80.414,1028.51 78.909,1027.39C80.403,1028.68 80.388,1028.67 81.897,1029.96C82.595,1030.56 84.393,1032.12 84.61,1032.3C83.448,1031.21 83.544,1031.12 80.975,1029.18C83.239,1031.22 83.226,1031.21 85.472,1033.3C83.584,1032 83.54,1032.09 80.749,1029.71C82.291,1031.32 82.304,1031.29 83.96,1032.79C81.632,1030.08 81.689,1030.03 78.817,1027.56C80.208,1029.14 80.139,1029.2 82.599,1031.31C81.406,1030.12 81.472,1030.06 79.215,1028.21L79.933,1029.01" style="fill:none;stroke:black;stroke-width:1px;"/>
    <path id="lager54" d="M85.333,1049.21C84.318,1046.26 83.9,1045.28 84.77,1039.98C85.676,1034.47 85.595,1033.26 85.634,1030.76C82.933,1034.89 84.633,1035.98 84.033,1040.24C83.953,1040.8 83.082,1046.99 83.658,1047.36C84.893,1048.16 85.654,1047.16 86.361,1046.23" style="fill:none;stroke:black;stroke-width:1px;"/>
    <path id="lager55" d="M107.678,869.536C108.738,868.093 109.124,867.716 108.809,867.614C107.358,867.146 106.231,869.84 108.099,869.563C109.457,869.362 110.669,867.992 110.469,867.19C110.164,865.973 108.694,866.494 108.778,867.862L108.785,867.343C108.821,868.587 108.819,868.569 108.889,869.808C109.005,869.515 109.841,867.396 109.431,865.91C109.422,865.878 108.953,865.911 108.696,866.181C108.046,866.864 107.938,867.874 107.895,868.043" style="fill:none;stroke:black;stroke-width:1px;"/>
    <path id="lager56" d="M106.199,869.697C108.622,863.969 111.96,859.631 114.25,859.815C118.039,860.118 117.392,864.087 117.172,866.306C117.158,865.797 117.144,865.288 117.13,864.779C117.348,865.035 117.419,865.16 117.623,864.889C118.805,863.317 117.136,860.335 115.079,860.44C112.246,860.585 111.253,864.592 110.668,865.781C110.505,865.435 109.84,864.027 111.838,861.144C110.185,863.663 108.379,865.967 110.334,866.271C112.423,866.597 113.774,863.703 116.94,864.84C115.497,865.656 112.881,865.643 112.869,865.637C111.655,864.988 111.702,863.792 111.709,863.605C111.442,864.948 110.639,867.862 112.009,867.415C113.61,866.893 112.585,863.699 112.645,862.454C112.505,862.653 110.524,864.961 112.185,865.572C113.367,866.007 111.892,863.644 111.803,863.501C110.651,861.655 113.834,860.115 114.092,862.976C114.178,863.93 113.597,866.772 113.274,866.752C113.036,866.738 112.337,865.923 112.583,864.46C112.813,863.086 113.372,863.205 113.264,861.821C113.595,864.14 113.534,864.135 113.574,865.548C113.644,865.545 115.763,865.948 116.086,863.7C116.409,861.461 114.085,859.652 113.199,862.636C112.448,865.167 115.939,866.392 115.901,864.109C115.883,863.054 114.485,862.212 114.504,863.535C114.523,864.853 115.688,863.878 115.328,863.194C115.089,862.739 114.677,862.792 114.811,863.207C115.272,864.637 116.577,862.178 114.954,861.162C113.905,860.506 112.408,862.596 113.488,863.306C113.895,863.574 114.046,862.523 114.058,862.441C114.71,862.371 114.728,862.464 115.314,862.151C115.85,861.863 115.806,861.716 116.34,861.769C115.154,861.93 115.123,861.761 114.029,862.257C113.939,862.298 112.774,862.827 113.673,863.44C115.25,864.516 114.44,860.675 116.101,861.643C117.668,862.555 116.337,864.299 116.784,865.696" style="fill:none;stroke:black;stroke-width:1px;"/>
    <path id="lager57" d="M116.168,860.201C117.294,860.633 117.306,860.674 118.038,861.916" style="fill:none;stroke:black;stroke-width:1px;"/>
    <path id="lager58" d="M118.053,861.987C118.326,863.784 118.329,863.767 118.444,865.571" style="fill:none;stroke:black;stroke-width:1px;"/>
    <g id="lager59" transform="matrix(1.20704,0,0,2.16269,-24.0891,-1001.06)">
        <path d="M117.622,861.33C118.268,862.399 118.369,862.348 118.688,863.565" style="fill:none;stroke:black;stroke-width:0.57px;"/>
    </g>
    <path id="lager60" d="M106.782,868.763C109.056,864.001 115.181,856.313 117.94,862.196C119.567,865.665 116.478,868.892 115.29,870.302" style="fill:none;stroke:black;stroke-width:1px;"/>
    <g id="lager61" transform="matrix(1,0,0,5.766,0,-4311.59)">
        <rect x="72.374" y="898.493" width="48.265" height="25.769"/>
    </g>
    <path id="lager62" d="M106.857,868.882C106.592,869.604 105.253,873.257 101.568,876.915" style="fill:none;stroke:black;stroke-width:1px;"/>
    <path id="lager63" d="M101.834,877.419C97.439,884.394 96.948,884.013 92.559,891.015C90.74,893.915 90.574,893.775 89.012,894.928" style="stroke:black;stroke-width:1px;"/>
    <path id="lager64" d="M88.404,895.216C78.987,902.762 80.674,904.447 70.936,913.394C70.006,914.248 66.578,922.164 77.475,924.573C79.706,925.066 79.693,923.632 106.029,923.88C106.295,923.882 109.968,925.234 113.338,916.207C114.339,913.528 116.133,904.009 116.32,896.173C116.455,890.546 116.379,890.589 116.537,884.942" style="fill:none;stroke:black;stroke-width:1px;"/>
    <path id="lager65" d="M116.386,885.401C116.036,877.355 116.083,877.347 116.738,874.657C117.96,869.633 118.492,869.733 118.612,864.658" style="fill:none;stroke:black;stroke-width:1px;"/>
    <g id="lager66" transform="matrix(1,0,0,1.02107,1.5234,-19.7974)">
        <rect x="107.65" y="866.659" width="38.379" height="185.923"/>
    </g>
    <g id="lager67" transform="matrix(1.04509,0,0,1.02531,-3.39351,-25.7567)">
        <path d="M75.257,928.937L75.257,1010.07C75.257,1014.3 71.888,1017.73 67.739,1017.73L40.332,1017.73C36.183,1017.73 32.814,1014.3 32.814,1010.07L32.814,928.937C32.814,924.707 36.183,921.273 40.332,921.273L67.739,921.273C71.888,921.273 75.257,924.707 75.257,928.937Z"/>
    </g>
    <rect id="lager68" x="90.783" y="80.513" width="25.334" height="1.253"/>
    <g id="lager69" transform="matrix(1.00414,0,0,0.285531,-0.487498,59.1413)">
        <rect x="88.741" y="78.402" width="28.898" height="4.374"/>
    </g>
    <g transform="matrix(1,0,0,1.49713,0,-19.3576)">
        <g id="lager71">
            <path d="M418.025,39.195C419.334,47.874 420.643,56.553 421.953,65.232C422.806,70.887 416.508,75.523 407.875,75.499C314.119,75.247 220.363,74.995 126.608,74.743C118.179,74.721 112.083,70.139 112.995,64.585C114.394,56.063 115.793,47.542 117.192,39.02C118.06,33.731 125.262,29.385 133.35,29.385L401.642,29.385C409.913,29.385 417.214,33.813 418.025,39.195Z"/>
        </g>
    </g>
    <g transform="matrix(1.03366,0,0,1.01659,-2.95497,-6.31032)">
        <g id="lager73">
            <path d="M437.038,87.953C426.609,186.055 416.179,284.157 405.75,382.259C309.295,381.778 212.839,381.297 116.384,380.816C106.451,282.885 96.517,184.955 86.584,87.025C203.402,87.334 320.22,87.644 437.038,87.953Z"/>
        </g>
    </g>
    <g transform="matrix(1.03366,0,0,1.01659,-2.95497,-6.31032)">
        <g id="lager74">
            <path d="M437.038,87.953C426.609,186.055 416.179,284.157 405.75,382.259C309.295,381.778 212.839,381.297 116.384,380.816C106.451,282.885 96.517,184.955 86.584,87.025C203.402,87.334 320.22,87.644 437.038,87.953Z"/>
        </g>
    </g>
    <rect id="lager75" x="97.358" y="79.307" width="16.554" height="1.03"/>
    <g id="lager77" transform="matrix(1.00705,-0.0644897,0.0463891,0.724397,-4.7161,28.0233)">
        <path d="M87.313,82.605C89.661,81.612 102.111,76.347 119.117,80.752" style="fill:none;stroke:black;stroke-width:1.14px;"/>
    </g>
    <g id="lager78" transform="matrix(1.02365,0,0,0.619456,-2.68711,31.2234)">
        <rect x="94.692" y="78.584" width="18.942" height="1.723"/>
    </g>
    <rect id="lager79" x="101.394" y="78.798" width="13.173" height="1.531"/>
    <g id="lager80" transform="matrix(1,0,0,1,-1.46047,0.223747)">
        <rect x="146.344" y="378.686" width="242.437" height="536.075"/>
    </g>
    <g id="lager81" transform="matrix(1,0,0,1.02829,0,-26.0369)">
        <g id="lager82">
            <path id="lager811" serif:id="lager81" d="M107.101,870.685C95.342,887.352 83.584,904.019 71.825,920.685C59.241,920.437 46.657,920.189 34.073,919.941C46.38,903.592 58.686,887.244 70.993,870.896C83.029,870.826 95.065,870.756 107.101,870.685Z"/>
        </g>
    </g>
    <path id="lager83" d="M85.184,1046.77C85.29,1042.66 85.581,1042.7 85.958,1038.6C85.295,1040.09 85.25,1040.07 84.955,1041.69C84.835,1042.35 84.949,1042.35 85.469,1045.36C85.258,1041.53 85.269,1041.54 85.336,1037.7C85.379,1035.2 85.397,1035.19 84.623,1033.2C84.74,1035.98 85.408,1037.24 84.741,1037.19C83.417,1037.11 81.228,1035.74 80.566,1034.47C80.261,1033.89 80.336,1033.86 76.891,1027.1C79.2,1028.67 78.953,1028.92 80.715,1031.09C81.419,1031.96 82.331,1032.51 84.866,1034.14C84.863,1034.6 85.09,1035.28 83.984,1035.9C81.335,1037.36 80.07,1033.48 79.949,1033.11C79.244,1030.94 78.514,1031.27 77.977,1029.06C79.285,1029.57 79.16,1029.74 79.867,1030.57C81.119,1032.02 85.622,1035.16 82.875,1035.54C82.818,1035.55 79.581,1035.48 79.793,1033.63C79.887,1032.8 80.072,1032.78 79.393,1030.72C81.088,1033.2 81.3,1033.02 83.201,1035.33C82.48,1035.56 82.499,1035.29 82.119,1034.66C81.677,1033.92 80.027,1032.26 79.832,1032.07C80.968,1033.76 80.9,1033.78 81.913,1035.55C80.83,1034.36 80.904,1034.32 79.954,1033.02C78.992,1031.69 78.837,1031.83 77.92,1030.48C78.5,1032.39 80.517,1036.37 80.844,1037.53C81.51,1039.88 81.889,1039.71 82.679,1042.04C83.031,1043.07 83.242,1042.95 83.634,1043.95C82.2,1043.12 82.012,1042.87 81.289,1041.35C82.378,1041.75 82.361,1041.74 83.406,1042.21C83.633,1041.89 84.949,1040.02 84.041,1037.34C83.901,1036.93 82.123,1036.55 81.947,1036.51C80.803,1036.27 80.266,1035.54 79.855,1035.13C80.508,1037.08 80.312,1037.17 81.48,1038.87C82.421,1040.24 82.513,1040.16 83.339,1041.62C85.713,1037.52 82.832,1037.88 80.937,1036.91C81.74,1038.47 81.647,1038.52 83.175,1040.29C83.132,1039.94 83.09,1039.58 83.047,1039.22C84.417,1040.04 84.393,1040.04 85.681,1040.98C84.536,1039.97 84.6,1039.91 83.336,1039.04C82.822,1038.69 82.687,1038.78 81.964,1037.96C83.495,1038.14 83.542,1038.49 84.704,1039.49" style="fill:none;stroke:black;stroke-width:1px;"/>
    <path id="lager84" d="M70.553,1016.01C71.761,1015.89 71.75,1015.88 72.952,1015.91C72.51,1015.72 72.518,1015.72 72.044,1015.61C72.048,1015.68 72.198,1015.7 72.202,1015.78C72.205,1015.84 71.578,1016.16 71.521,1016.19C72.391,1016.92 72.438,1016.9 75.618,1017.54C74.199,1017.26 67.677,1016.24 67.672,1016.23C66.649,1016.17 66.421,1015.94 65.974,1016.85C65.448,1017.93 66.475,1017.38 70.112,1017.47C72.9,1017.54 73.064,1017.2 75.762,1017.42" style="fill:none;stroke:black;stroke-width:1px;"/>
    <path id="lager85" d="M147.73,1054.54C148.217,1052.78 148.303,1052.82 148.917,1051.11C149.007,1050.86 150.445,1045.86 150.692,1044.82C152.114,1038.87 151.302,1037.04 150.98,1034.24C150.857,1033.18 148.557,1031.61 147.708,1033.34C146.299,1036.21 145.345,1052.16 147.141,1051.8C148.063,1051.62 148.156,1051.12 149.362,1047.02C151.702,1039.05 150.602,1038.52 149.833,1035.24C149.792,1035.06 149.568,1034.11 148.882,1033.2C148.051,1032.09 145.998,1037.05 147.102,1037.11C148.711,1037.19 150.133,1033.88 149.397,1033.74C148.331,1033.52 147.557,1035.68 147.479,1035.9C147.697,1035.59 147.691,1035.6 147.856,1035.25C144.456,1036.5 147.661,1039.15 148.409,1037.75C148.883,1036.87 146.628,1036.73 146.103,1039.1C145.632,1041.22 150.223,1040.33 149.936,1036.44C149.754,1033.98 146.134,1036.15 147.66,1037.82C148.714,1038.97 149.92,1033.38 147.436,1034.65C146.063,1035.35 146.753,1035.94 146.843,1036.02C147.928,1036.96 149.377,1036.28 149.575,1036.19C148.673,1035.9 148.583,1035.83 147.856,1036.45C145.325,1038.59 148.411,1042.99 149.2,1041.13C149.971,1039.32 146.899,1040.26 147.452,1040.63C149.284,1041.88 150.8,1038 149.338,1038.2C148.071,1038.38 149.173,1039.8 149.971,1039.02C150.296,1038.71 148.925,1036.58 147.18,1038.67C147.306,1038.62 148.753,1037.98 148.225,1037.3C147.535,1036.42 145.961,1037.66 145.795,1038.53C145.703,1039.01 147.053,1040.46 148.84,1039.82C148.473,1040.32 148.461,1040.29 148.172,1040.83C148.263,1040.66 149,1039.22 148.822,1038.44C148.786,1038.28 149.107,1038.43 149.92,1036.69C148.843,1036.92 148.723,1037.07 148.112,1038.1C148.355,1038.07 148.598,1038.03 148.841,1038C148.264,1039.33 148.277,1039.32 147.678,1040.65C147.241,1039.92 147.281,1039.92 147.028,1039.12C147.423,1039.46 149.056,1039.97 149.547,1044.93C149.644,1045.92 148.978,1047.06 148.342,1046.42C147.234,1045.31 148.046,1043.03 148.552,1040.83C148.906,1043.43 148.912,1043.42 148.983,1046.05C147.852,1045.15 147.842,1045.11 147.298,1043.28C147.649,1043.55 147.999,1043.81 148.35,1044.08C149.217,1043.19 149.263,1043.03 149.107,1041.65C148.809,1042.25 148.82,1042.24 148.617,1042.9C148.253,1042.26 148.3,1042.24 147.732,1041.75C147.746,1042.95 147.692,1042.98 148.395,1044.32C148.637,1042.67 148.602,1042.65 149.441,1040.91C150.011,1041.73 150.015,1041.76 150.019,1043.15C149.395,1042.28 149.387,1042.11 149.573,1040.88C150.156,1041.89 150.206,1041.93 149.971,1043.37C149.025,1039.43 150.71,1037.29 149.244,1037.21C147.677,1037.12 147.093,1040.63 147.035,1040.97C146.51,1044.12 146.863,1044.13 147.327,1047.18C147.469,1048.12 147.374,1048.14 146.938,1048.54C144.727,1050.54 146.786,1052.76 148.451,1050.78C148.472,1050.76 149.936,1045.78 148.613,1045.44C147.702,1045.2 146.42,1047.59 148.356,1049.18C148.773,1049.53 149.26,1047.88 148.819,1047.55C148.381,1047.24 147.519,1046.59 147.57,1047.15C147.655,1048.11 148.051,1047.86 148.74,1048.53C148.02,1049.66 147.431,1050.29 147.025,1051.24C146.825,1051.71 147.017,1052.06 147.536,1053.39C147.683,1052.85 148.563,1049.59 146.753,1046.41" style="fill:none;stroke:black;stroke-width:1px;"/>
    <rect id="lager86" x="139.432" y="902.471" width="787.421" height="125.308"/>
    <g id="lager87" transform="matrix(1,0,0,1,-0.30077,-0.230733)">
        <rect x="926.038" y="930.231" width="43.407" height="62.924"/>
    </g>
    <g transform="matrix(1.04672,0,0,1,-38.5236,2.87032)">
        <g id="lager88">
            <path d="M852.19,602.817L852.19,819.468C852.19,849.86 828.028,876.363 798.13,876.363L547.806,876.363C544.711,876.363 528.404,876.363 511.451,863.117C504.505,857.69 493.42,847.766 493.468,825.363C493.624,752.272 494.784,677.949 495.261,603.397C495.461,572.039 519.344,547.126 548.662,547.126L798.985,547.126C828.384,547.126 852.19,572.101 852.19,602.817Z"/>
        </g>
    </g>
    <g id="lager89" transform="matrix(1.14975,0,0,1,-141.676,0)">
        <path d="M946.107,534.96L946.107,572.926C946.107,583.403 938.709,591.909 929.597,591.909L878.25,591.909C869.138,591.909 861.74,583.403 861.74,572.926L861.74,534.96C861.74,524.483 869.138,515.977 878.25,515.977L929.597,515.977C938.709,515.977 946.107,524.483 946.107,534.96Z"/>
    </g>
    <rect id="lager90" x="841.126" y="166.203" width="53.423" height="34.94"/>
    <g id="lager91">
        <g transform="matrix(-1.06771,-0.362119,0.471516,-1.39027,689.776,1403.21)">
            <path d="M450.398,509.693C453.333,513.528 463.466,522.066 464.912,527.415C461.446,527.494 450.838,527.764 441.474,527.817C441.924,526.265 441.936,526.224 450.398,509.693Z"/>
        </g>
    </g>
    <g id="lager92" transform="matrix(1.13722,0,0,1.04938,-93.0286,-23.3182)">
        <path d="M677.954,472.22C677.5,474.508 677.295,474.433 674.973,480.24C674.771,480.746 673.065,485.013 672.203,486.464" style="fill:none;stroke:black;stroke-width:5.94px;"/>
    </g>
    <path id="lager93" d="M581.334,489.481C585.319,490.886 596.371,495.85 598.848,494.674C599.626,494.305 607.248,488.857 606.529,487.707C603.924,483.543 594.737,489.66 591.765,491.335C592.435,491.578 592.356,491.786 593.405,491.929C594.544,492.083 597.905,490.961 594.727,489.319C591.934,487.876 587.608,488.144 582.851,487.033C575.46,485.308 575.123,484.848 574.889,485.556C573.952,488.396 579.242,493.158 580.92,494.268C590.379,500.52 594.613,504.9 599.341,504.077C602.442,503.538 612.895,495.313 613.328,493.237C613.672,491.585 611.447,487.6 607.82,492.201C606.446,493.944 605.067,496.587 599.93,498.467C594.09,500.604 585.556,496.386 593.928,490.368C598.661,486.966 612.879,484.012 614.421,486.403C614.84,487.053 612.189,487.165 611.534,490.018C610.371,495.077 609.176,494.44 606.906,497.468C607.684,498.149 610.229,500.375 618.298,491.346C621.737,487.498 616.93,485.52 613.883,483.337" style="fill:none;stroke:black;stroke-width:6.5px;"/>
    <path id="lager94" d="M656.503,472.29C649.204,475.967 649.881,477.074 642.657,480.924C640.526,482.059 634.968,485.577 631.217,487.219" style="fill:none;stroke:black;stroke-width:6.5px;"/>
    <path id="lager95" d="M629.051,488.057C621.912,491.319 622.343,492.103 615.214,495.31C605.889,499.506 601.51,505.979 601.142,500.08C600.902,496.228 606.13,488.944 616.123,486.316C623.1,484.481 623.021,484.271 631.253,480.148C634.207,478.668 636.561,477.809 642.63,474.125" style="fill:none;stroke:black;stroke-width:6.5px;"/>
    <g id="lager96" transform="matrix(1,0.0156946,0,1,0.523395,-10.2612)">
        <rect x="856.555" y="515.786" width="12.371" height="7.672" style="stroke:black;stroke-width:6.45px;"/>
    </g>
    <g id="lager97" transform="matrix(1,0,0,1,3.09798,-0.87028)">
        <rect x="77.859" y="1015.83" width="25.481" height="13.491" style="stroke:black;stroke-width:6.5px;"/>
    </g>
    <g id="lager98" transform="matrix(1.16219,0,0,1.47386,-13.5264,-491.55)">
        <path d="M83.401,1037.32C83.676,1038.11 85.009,1041.06 86.01,1043.55" style="fill:none;stroke:black;stroke-width:4.9px;"/>
    </g>
    <g id="lager99" transform="matrix(4.09493,1.08444,-0.588103,2.22072,147.46,-1412.95)">
        <path d="M147.802,1027.15C147.802,1028.94 147.806,1028.93 147.752,1029.83" style="fill:none;stroke:black;stroke-width:1.91px;"/>
    </g>
    <path id="lager100" d="M148.497,1038.64C148.497,1041.03 148.571,1041.07 147.596,1043.43" style="fill:none;stroke:black;stroke-width:6.5px;"/>
    <g id="lager101" transform="matrix(1,0,0,1.55969,0,-574.048)">
        <path d="M851.664,1025.66C851.664,1031.25 851.196,1031.19 850.593,1036.73" style="fill:none;stroke:black;stroke-width:4.96px;"/>
    </g>
</svg>
